<?xml version="1.0" encoding="UTF-8"?>
<svg width="451px" height="235px" viewBox="0 0 451 235" version="1.1" xmlns="http://www.w3.org/2000/svg" xmlns:xlink="http://www.w3.org/1999/xlink">
    <title>logo-blue</title>
    <g id="Page-1" stroke="none" stroke-width="1" fill="none" fill-rule="evenodd">
        <g id="blue-white" transform="translate(-263.000000, -179.000000)" fill="#0635F9" fill-rule="nonzero" stroke="#0635F9" stroke-width="2">
            <path d="M376.535,180.61 C391.421667,180.61 404.23,182.543333 414.96,186.41 C425.69,190.276667 436.468333,196.656667 447.295,205.55 C448.841667,206.71 450.05,207.918333 450.92,209.175 C451.79,210.431667 452.37,211.688333 452.66,212.945 C452.95,214.201667 453.095,215.7 453.095,217.44 C453.095,221.113333 451.79,224.158333 449.18,226.575 C446.57,228.991667 443.428333,230.345 439.755,230.635 C436.081667,230.925 432.505,229.716667 429.025,227.01 C421.871667,220.823333 414.476667,216.086667 406.84,212.8 C399.203333,209.513333 389.101667,207.87 376.535,207.87 C365.128333,207.87 354.398333,210.19 344.345,214.83 C334.291667,219.47 325.446667,225.85 317.81,233.97 C310.173333,242.09 304.228333,251.515 299.975,262.245 C295.721667,272.975 293.595,284.43 293.595,296.61 C293.595,308.983333 295.721667,320.535 299.975,331.265 C304.228333,341.995 310.173333,351.42 317.81,359.54 C325.446667,367.66 334.291667,373.991667 344.345,378.535 C354.398333,383.078333 365.128333,385.35 376.535,385.35 C386.395,385.35 395.723333,383.658333 404.52,380.275 C413.316667,376.891667 421.775,372.203333 429.895,366.21 C433.375,363.696667 436.806667,362.585 440.19,362.875 C443.573333,363.165 446.425,364.518333 448.745,366.935 C451.065,369.351667 452.225,372.686667 452.225,376.94 C452.225,378.873333 451.838333,380.758333 451.065,382.595 C450.291667,384.431667 449.131667,386.123333 447.585,387.67 C437.145,395.983333 425.98,402.266667 414.09,406.52 C402.2,410.773333 389.681667,412.9 376.535,412.9 C360.875,412.9 346.23,409.951667 332.6,404.055 C318.97,398.158333 307.08,389.941667 296.93,379.405 C286.78,368.868333 278.853333,356.543333 273.15,342.43 C267.446667,328.316667 264.595,313.043333 264.595,296.61 C264.595,280.37 267.446667,265.241667 273.15,251.225 C278.853333,237.208333 286.78,224.931667 296.93,214.395 C307.08,203.858333 318.921667,195.593333 332.455,189.6 C345.988333,183.606667 360.681667,180.61 376.535,180.61 Z M383.825,259 C390.325,259 396,260.275 400.85,262.825 C405.7,265.375 409.575,268.55 412.475,272.35 L412.475,272.35 L412.4788,272.045025 C412.640607,265.558544 417.949543,260.35 424.475,260.35 L424.475,260.35 L429.725,260.35 L429.725,325.75 C429.725,335.276912 422.001912,343 412.475,343 L412.475,343 L412.475,330.7 C409.575,334.6 405.625,337.85 400.625,340.45 C395.625,343.05 389.925,344.35 383.525,344.35 C376.425,344.35 369.925,342.525 364.025,338.875 C358.125,335.225 353.45,330.125 350,323.575 C346.55,317.025 344.825,309.6 344.825,301.3 C344.825,293 346.55,285.65 350,279.25 C353.45,272.85 358.15,267.875 364.1,264.325 C370.05,260.775 376.625,259 383.825,259 Z M471.875,259 C481.275,259 488.85,261.375 494.6,266.125 C500.35,270.875 503.425,277.35 503.825,285.55 L503.825,285.55 L486.725,285.55 C486.425,281.85 484.925,278.9 482.225,276.7 C479.525,274.5 475.875,273.4 471.275,273.4 C466.775,273.4 463.325,274.25 460.925,275.95 C458.525,277.65 457.325,279.9 457.325,282.7 C457.325,284.9 458.125,286.75 459.725,288.25 C461.325,289.75 463.275,290.925 465.575,291.775 C467.875,292.625 471.275,293.7 475.775,295 C481.775,296.6 486.7,298.225 490.55,299.875 C494.4,301.525 497.725,303.95 500.525,307.15 C503.325,310.35 504.775,314.6 504.875,319.9 C504.875,324.6 503.575,328.8 500.975,332.5 C498.375,336.2 494.7,339.1 489.95,341.2 C485.2,343.3 479.625,344.35 473.225,344.35 C466.725,344.35 460.9,343.175 455.75,340.825 C450.6,338.475 446.525,335.275 443.525,331.225 C440.525,327.175 438.925,322.65 438.725,317.65 L438.725,317.65 L456.425,317.65 C456.725,321.15 458.4,324.075 461.45,326.425 C464.5,328.775 468.325,329.95 472.925,329.95 C477.725,329.95 481.45,329.025 484.1,327.175 C486.75,325.325 488.075,322.95 488.075,320.05 C488.075,316.95 486.6,314.65 483.65,313.15 C480.7,311.65 476.025,310 469.625,308.2 C463.425,306.5 458.375,304.85 454.475,303.25 C450.575,301.65 447.2,299.2 444.35,295.9 C441.5,292.6 440.075,288.25 440.075,282.85 C440.075,278.45 441.375,274.425 443.975,270.775 C446.575,267.125 450.3,264.25 455.15,262.15 C460,260.05 465.575,259 471.875,259 Z M635.975,259 C642.475,259 648.15,260.275 653,262.825 C657.85,265.375 661.725,268.55 664.625,272.35 L664.625,272.35 L664.6288,272.045025 C664.790607,265.558544 670.099543,260.35 676.625,260.35 L676.625,260.35 L681.875,260.35 L681.875,325.75 C681.875,335.276912 674.151912,343 664.625,343 L664.625,343 L664.625,330.7 C661.725,334.6 657.775,337.85 652.775,340.45 C647.775,343.05 642.075,344.35 635.675,344.35 C628.575,344.35 622.075,342.525 616.175,338.875 C610.275,335.225 605.6,330.125 602.15,323.575 C598.7,317.025 596.975,309.6 596.975,301.3 C596.975,293 598.7,285.65 602.15,279.25 C605.6,272.85 610.3,267.875 616.25,264.325 C622.2,260.775 628.775,259 635.975,259 Z M589.175,260.35 L589.175,325.9 C589.175,335.344069 581.519069,343 572.075,343 L572.075,343 L572.075,333.25 C569.375,336.65 565.85,339.325 561.5,341.275 C557.15,343.225 552.525,344.2 547.625,344.2 C541.125,344.2 535.3,342.85 530.15,340.15 C525,337.45 520.95,333.45 518,328.15 C515.05,322.85 513.575,316.45 513.575,308.95 L513.575,308.95 L513.575,277.3 C513.575,267.938773 521.163773,260.35 530.525,260.35 L530.525,260.35 L530.525,306.4 C530.525,313.8 532.375,319.475 536.075,323.425 C539.775,327.375 544.825,329.35 551.225,329.35 C557.625,329.35 562.7,327.375 566.45,323.425 C570.2,319.475 572.075,313.8 572.075,306.4 L572.075,306.4 L572.075,277.45 C572.075,268.005931 579.730931,260.35 589.175,260.35 L589.175,260.35 Z M712.475,232 L712.475,325.9 C712.475,335.344069 704.819069,343 695.375,343 L695.375,343 L695.375,249.1 C695.375,239.655931 703.030931,232 712.475,232 L712.475,232 Z M387.425,273.85 C383.025,273.85 378.925,274.925 375.125,277.075 C371.325,279.225 368.25,282.375 365.9,286.525 C363.55,290.675 362.375,295.6 362.375,301.3 C362.375,307 363.55,312 365.9,316.3 C368.25,320.6 371.35,323.875 375.2,326.125 C379.05,328.375 383.125,329.5 387.425,329.5 C391.825,329.5 395.925,328.4 399.725,326.2 C403.525,324 406.6,320.775 408.95,316.525 C411.3,312.275 412.475,307.3 412.475,301.6 C412.475,295.9 411.3,290.95 408.95,286.75 C406.6,282.55 403.525,279.35 399.725,277.15 C395.925,274.95 391.825,273.85 387.425,273.85 Z M639.575,273.85 C635.175,273.85 631.075,274.925 627.275,277.075 C623.475,279.225 620.4,282.375 618.05,286.525 C615.7,290.675 614.525,295.6 614.525,301.3 C614.525,307 615.7,312 618.05,316.3 C620.4,320.6 623.5,323.875 627.35,326.125 C631.2,328.375 635.275,329.5 639.575,329.5 C643.975,329.5 648.075,328.4 651.875,326.2 C655.675,324 658.75,320.775 661.1,316.525 C663.45,312.275 664.625,307.3 664.625,301.6 C664.625,295.9 663.45,290.95 661.1,286.75 C658.75,282.55 655.675,279.35 651.875,277.15 C648.075,274.95 643.975,273.85 639.575,273.85 Z" id="logo-blue"></path>
        </g>
    </g>
</svg>